/* XPM */
static char *bus_station[] = {
/* columns rows colors chars-per-pixel */
"15 6 75 1",
"  c #007D7D",
". c #007E7E",
"X c #1D7C7C",
"o c #1C7E7E",
"O c #525151",
"+ c #535E5E",
"@ c #545A5A",
"# c #5E5E5E",
"$ c #536161",
"% c #536D6D",
"& c #646464",
"* c #7E7F7F",
"= c #028080",
"- c #068181",
"; c #0E8484",
": c #138888",
"> c #188282",
", c #1C8080",
"< c #219090",
"1 c #229090",
"2 c #229191",
"3 c #259292",
"4 c #259393",
"5 c #2A9494",
"6 c #2B9595",
"7 c #2D9494",
"8 c #2F9696",
"9 c #319797",
"0 c #349595",
"q c #339898",
"w c #339999",
"e c #379A9A",
"r c #399C9C",
"t c #3A9C9C",
"y c #3C9D9D",
"u c #4A8282",
"i c #419292",
"p c #409E9E",
"a c #409F9F",
"s c #559494",
"d c #42A0A0",
"f c #45A1A1",
"g c #47A2A2",
"h c #4AA4A4",
"j c #4BA6A6",
"k c #50A7A7",
"l c #54A9A9",
"z c #57AAAA",
"x c #59ACAC",
"c c #5CADAD",
"v c #5FAEAE",
"b c #62B1B1",
"n c #63B0B0",
"m c #66B2B2",
"M c #68B3B3",
"N c #68B4B4",
"B c #70B7B7",
"V c #76BABA",
"C c #7BBCBC",
"Z c #A9B0B0",
"A c #83C0C0",
"S c #96C9C9",
"D c #BFC8C8",
"F c #B0D6D6",
"G c #B2D7D7",
"H c #C2DFDF",
"J c #C9D6D6",
"K c #C7E1E1",
"L c #D1E3E3",
"P c #D0E6E6",
"I c #D1E7E7",
"U c #D3E8E8",
"Y c #D4E8E8",
"T c #DCECEC",
"R c #E5F0F0",
/* pixels */
"V9g7eg5yg4yt5yz",
"vSRAGTBHYMPFCKA",
"hjNrzm9vn9mjyvy",
"7o,-     ;o>..:",
"s+$i22224u@%025",
"D#&JUPPPUZO*LPP"
};
