/* XPM */
static char *cemetery[] = {
/* columns rows colors chars-per-pixel */
"13 15 31 1",
"  c #000000",
". c #030303",
"X c #060606",
"o c #070707",
"O c #0E0E0E",
"+ c #0F0F0F",
"@ c #101010",
"# c #151515",
"$ c #191919",
"% c #1A1A1A",
"& c #212121",
"* c #222222",
"= c #3D3D3D",
"- c #4A4A4A",
"; c #787878",
": c #848484",
"> c #858585",
", c #868686",
"< c #878787",
"1 c #898789",
"2 c #888888",
"3 c #898888",
"4 c #898889",
"5 c #898989",
"6 c #8B8B8B",
"7 c #8C8C8C",
"8 c #8D8D8D",
"9 c #8E8D8E",
"0 c #8E8E8E",
"q c #909090",
"w c None",
/* pixels */
"wwwwwwwwwwwww",
"wwwwwwwwwwwww",
"ww9999990wwww",
"w299777907www",
"w<797779790ww",
"w<797777790ww",
"w2977777790ww",
"w2977777779ww",
"w2997777799ww",
"w2997777799ww",
"w2997999777ww",
"w2997999999ww",
"www=q<29979ww",
"wwwwww-2<:9ww",
"wwwwwwwwwwwww"
};
