/* XPM */
static char *civil[] = {
/* columns rows colors chars-per-pixel */
"15 15 98 2",
"   c #1F2727",
".  c #201B08",
"X  c #261F17",
"o  c #211F1F",
"O  c #321E1E",
"+  c #28270A",
"@  c #33371B",
"#  c #232121",
"$  c #252525",
"%  c #262626",
"&  c #242828",
"*  c #282323",
"=  c #2B2323",
"-  c #282A2A",
";  c #292A2A",
":  c #2A2828",
">  c #2A2A2A",
",  c #2B2B2B",
"<  c #292C2C",
"1  c #2D2D2D",
"2  c #382121",
"3  c #3C2927",
"4  c #3D2E24",
"5  c #363535",
"6  c #373737",
"7  c #383737",
"8  c #3D3E3E",
"9  c #571D1D",
"0  c #5D1613",
"q  c #412323",
"w  c #452525",
"e  c #630200",
"r  c #650501",
"t  c #6E0000",
"y  c #6E0100",
"u  c #6F0100",
"i  c #6D0B05",
"p  c #6A1007",
"a  c #631313",
"s  c #631A15",
"d  c #641A1A",
"f  c #661919",
"g  c #671A1A",
"h  c #700000",
"j  c #710000",
"k  c #7B0000",
"l  c #7C0000",
"z  c #7D0000",
"x  c #790D06",
"c  c #7E0D05",
"v  c #424141",
"b  c #434141",
"n  c #444747",
"m  c #464747",
"M  c #474A4A",
"N  c #484545",
"B  c #4A4444",
"V  c #534E4E",
"C  c #534F4F",
"Z  c #8E0909",
"A  c #910707",
"S  c #9F0000",
"D  c #980B09",
"F  c #AA0303",
"G  c #AC0202",
"H  c #AE0B0B",
"J  c #AE1010",
"K  c #BB0707",
"L  c #BF0A0A",
"P  c #D10504",
"I  c #D40606",
"U  c #D50707",
"Y  c #D80203",
"T  c #D80303",
"R  c #D90302",
"E  c #D90707",
"W  c #DC0101",
"Q  c #DC0404",
"!  c #D90A0A",
"~  c #D90B0B",
"^  c #DB0909",
"/  c #DA0C0C",
"(  c #DC0D0D",
")  c #DD0E0E",
"_  c #DE0F0F",
"`  c #E10101",
"'  c #E20001",
"]  c #EA0100",
"[  c #ED0000",
"{  c #E11212",
"}  c #F40000",
"|  c #F50000",
" . c #F70000",
".. c #F90000",
"X. c #FB0000",
"o. c #FC0000",
"O. c #FE0000",
"+. c red",
/* pixels */
"[ S z z z z z z k z z z z S [ ",
"S h  ............. ..... .y S ",
"z  .O.O.O.O.O.O.O.O.O.O.O. .z ",
"z ..O.O.O.O. .]  .O.O.O.O...z ",
"z ..O.O.O.O.T D P O.O.O.O...z ",
"z ..O.O.O.O.H 9 J O.O.O.O...z ",
"z ..O.O.O.T a   d Q O.O.O...z ",
"z ..O.O.O.K O & 2 L O.O.O...z ",
"z  .Y F Z d ; ; : g A G T  .z ",
"y x 0 q * < 7 6 7 ; = w s c y ",
"e . @ M n 1 % % % < 8 n X + r ",
"y i 4 v V N # # 6 V N v 3 p y ",
"k ' E ! ) ) I U ! { / ! ! ' k ",
"S h ..O.......O...O.O.....h S ",
"[ S z z z z z z z z k z z S [ "
};
