/* XPM */
static char *crossing[] = {
/* columns rows colors chars-per-pixel */
"15 15 34 1",
"  c #BD0000",
". c #BE0000",
"X c #C11111",
"o c #C21D1D",
"O c #C42828",
"+ c #C53333",
"@ c #C63333",
"# c #C73C3C",
"$ c #C84141",
"% c #CB5757",
"& c #CC5F5F",
"* c #D08484",
"= c #D18686",
"- c #D29393",
"; c #D39797",
": c #D49E9E",
"> c #D6AEAE",
", c #D6B0B0",
"< c #D6B1B1",
"1 c #D7B6B6",
"2 c #D9C9C9",
"3 c #DAD2D2",
"4 c #DBDBDB",
"5 c #DCDBDB",
"6 c #DCDCDC",
"7 c #DCDDDD",
"8 c #DCDEDE",
"9 c #DCDFDF",
"0 c #DCE1E1",
"q c #DDE4E4",
"w c #DDE8E8",
"e c #DDEAEA",
"r c #DEF1F1",
"t c None",
/* pixels */
"ttttttttttttttt",
"ttttttttttttttt",
"16ttttttttttt61",
"X:<ttttttttt<:X",
"# o;>ttttt<;o.#",
"3%$ O=<t<=O $%3",
"tt2&&@@=@@&&2tt",
"ttttt-   ;ttttt",
"tt2&&@@=@@&&2tt",
"3%$ O=<t>=O $%3",
"#.o;>ttttt>;o.#",
"X:<ttttttttt<:X",
"16ttttttttttt01",
"ttttttttttttttt",
"ttttttttttttttt"
};
