/* XPM */
static char *danger[] = {
/* columns rows colors chars-per-pixel */
"15 9 95 2",
"   c black",
".  c #010101",
"X  c #070707",
"o  c #0C0C0C",
"O  c #0F0F0F",
"+  c #131313",
"@  c #161616",
"#  c #181818",
"$  c #1A1A1A",
"%  c #1C1C1C",
"&  c #1F1F1F",
"*  c #232323",
"=  c #242424",
"-  c #292929",
";  c #2B2B2B",
":  c #2F2F2F",
">  c #303030",
",  c #323232",
"<  c #353535",
"1  c #363636",
"2  c #373737",
"3  c #3D3D3D",
"4  c #3E3E3E",
"5  c #404040",
"6  c #414141",
"7  c #454545",
"8  c #464646",
"9  c #484848",
"0  c #494949",
"q  c #4A4A4A",
"w  c #4D4D4D",
"e  c #4E4E4E",
"r  c #505050",
"t  c #525252",
"y  c #535353",
"u  c #555555",
"i  c #565656",
"p  c #575757",
"a  c #585858",
"s  c #595959",
"d  c #5D5D5D",
"f  c #5E5E5E",
"g  c #606060",
"h  c #656565",
"j  c #666666",
"k  c #686868",
"l  c #6A6A6A",
"z  c #6F6F6F",
"x  c #707070",
"c  c #717171",
"v  c #727272",
"b  c #737373",
"n  c #747474",
"m  c #797979",
"M  c #7A7A7A",
"N  c #7C7C7C",
"B  c #7F7F7F",
"V  c #828282",
"C  c #848484",
"Z  c #878787",
"A  c #888888",
"S  c #8B8B8B",
"D  c #8D8D8D",
"F  c #8E8E8E",
"G  c #929292",
"H  c #939393",
"J  c #959595",
"K  c #969696",
"L  c #999999",
"P  c #9C9C9C",
"I  c #9D9D9D",
"U  c #9F9F9F",
"Y  c #A6A6A6",
"T  c #ACACAC",
"R  c #B3B3B3",
"E  c #B4B4B4",
"W  c #B6B6B6",
"Q  c #B8B8B8",
"!  c #BABABA",
"~  c #BEBEBE",
"^  c #C1C1C1",
"/  c #C4C4C4",
"(  c #C7C7C7",
")  c #D2D2D2",
"_  c #D5D5D5",
"`  c #D7D7D7",
"'  c #DBDBDB",
"]  c #E0E0E0",
"[  c #E8E8E8",
"{  c #ECECEC",
"}  c #EDEDED",
"|  c #F1F1F1",
" . c #FCFCFC",
".. c #FDFDFD",
"X. c gray100",
/* pixels */
"..J a u u f G W W Z r u u a Y ",
"| u 4 X q ' ........W = + 6 z ",
"[ r 1   k ~ J _ W Y W * X 6 V ",
"] w >   u G n m V n Z + o 8 D ",
"` q ;   $ V I n Z L 4   + 8 Y ",
") 6 1 $ $ x L R I N ; $ ; 4 Y ",
"( : r > 1 1 a f q 1 > 1 > @ W ",
"^ q L N V k D N x N g m x & / ",
"} Z h h g u u u a w 8 q q x } "
};
