/* XPM */
static char *school[] = {
/* columns rows colors chars-per-pixel */
"15 15 147 2",
"   c #611510",
".  c #651111",
"X  c #661111",
"o  c #780706",
"O  c #780707",
"+  c #790607",
"@  c #790706",
"#  c #790707",
"$  c #7A0504",
"%  c #7A0604",
"&  c #7A0607",
"*  c #7C28A1",
"=  c #5626D5",
"-  c #602FD3",
";  c #7F4CCC",
":  c #31DE18",
">  c #3DD21B",
",  c #3FD11C",
"<  c #23EB14",
"1  c #22EC14",
"2  c #25E915",
"3  c #57BB23",
"4  c #58BA22",
"5  c #6CB32E",
"6  c #6EB32D",
"7  c #73A72F",
"8  c #74AC33",
"9  c #40D01C",
"0  c #41D521",
"q  c #9E0000",
"w  c #9E0001",
"e  c #9E0101",
"r  c #B93C5F",
"t  c #BB3E5E",
"y  c #987F34",
"u  c #B55B3A",
"i  c #B55D3A",
"p  c #B45E3A",
"a  c #B55E3A",
"s  c #B55F3B",
"d  c #B65C3A",
"f  c #A17633",
"g  c #BF673C",
"h  c #B14379",
"j  c #B2487E",
"k  c #ED0000",
"l  c #EB3520",
"z  c #EB3521",
"x  c #CD3C59",
"c  c #D83F45",
"v  c #DC3E45",
"b  c #DC3F46",
"n  c #E03846",
"m  c #E03B47",
"M  c #E23A48",
"N  c #C64D3F",
"B  c #C3533F",
"V  c #DB443E",
"C  c #DC453E",
"Z  c #DD463D",
"A  c #DE463C",
"S  c #E6402F",
"D  c #E44132",
"F  c #E94E3F",
"G  c #F34026",
"H  c #F44228",
"J  c #CD4045",
"K  c #CF4345",
"L  c #CC454F",
"P  c #C54053",
"I  c #C4425B",
"U  c #C84757",
"Y  c #CB4555",
"T  c #CC4250",
"R  c #CC4550",
"E  c #C65541",
"W  c #D14141",
"Q  c #D34142",
"!  c #D34241",
"~  c #D24242",
"^  c #D34544",
"/  c #D54141",
"(  c #D44042",
")  c #D44240",
"_  c #D54243",
"`  c #D54343",
"'  c #D54344",
"]  c #D74443",
"[  c #D74543",
"{  c #D44544",
"}  c #D64444",
"|  c #D64445",
" . c #D64545",
".. c #D74545",
"X. c #D94440",
"o. c #D84442",
"O. c #DA4540",
"+. c #DA4442",
"@. c #D94B4A",
"#. c #D94C4B",
"$. c #DE4C51",
"%. c #CE5671",
"&. c #E34C43",
"*. c #E54E43",
"=. c #E74D40",
"-. c #E1514A",
";. c #E0544C",
":. c #E3544C",
">. c #EA584B",
",. c #EC594A",
"<. c #ED5C57",
"1. c #EB6559",
"2. c #EE6658",
"3. c #F7644E",
"4. c #F06553",
"5. c #F76650",
"6. c #F06B5D",
"7. c #F17461",
"8. c #F0766F",
"9. c #8D3195",
"0. c #8F3698",
"q. c #903798",
"w. c #812CA5",
"e. c #8730A7",
"r. c #8737A5",
"t. c #863CAE",
"y. c #8C40AB",
"u. c #8C41AC",
"i. c #8A4ABB",
"p. c #B65387",
"a. c #A64CA6",
"s. c #A253A4",
"d. c #A15CB1",
"f. c #B07FCB",
"g. c #8E8D2D",
"h. c #80922D",
"j. c #849A36",
"k. c #968033",
"l. c #918937",
"z. c #918B37",
"x. c #9E8B38",
"c. c #9C9640",
"v. c #BE9365",
"b. c #FD846F",
"n. c #FD8772",
"m. c #C482B7",
"M. c #FF9482",
/* pixels */
"k e O O O O % % O O O O O e k ",
"e . ~ ~ ~ ^ D S ^ } ~ ~ ~ . e ",
"# ~ } } } &.3.3.*.} | | } K # ",
"# ~ } } @.>.=.=.,.#.| | } ~ O ",
"O ~ | ` -.b.6.2.n.:.} | } ~ O ",
"O ( v $.1.G z z z 4.;.O.} ~ O ",
"O N h.c.M.8.` ( 7.m.y.0.L V O ",
"O a < g.<.v.f %.f.i.* r.s.L O ",
"O a 9 M m l.5 a.; I A Z p.L O ",
"O d 2 4 3 7 g w.9.Z } ` V ~ O ",
"O a : y y j.x.e.0.Z } } +.~ O ",
"O a 9 v m z.5 x y.h +.| d.U O ",
"& u < , 0 8 E +.Y t.= - j K O ",
"w   u a a E ( ( ( P t t J X e ",
"k w & & O O O O O O O % O e k "
};
