/* XPM */
static char *shopping[] = {
/* columns rows colors chars-per-pixel */
"15 12 166 2",
"   c #4F0619",
".  c #550616",
"X  c #51091B",
"o  c #53091A",
"O  c #560A1A",
"+  c #5C0815",
"@  c #5D0914",
"#  c #5A0918",
"$  c #590C1A",
"%  c #470C23",
"&  c #60040F",
"*  c #6B060A",
"=  c #68070F",
"-  c #680D16",
";  c #611417",
":  c #6A1419",
">  c #700305",
",  c #740203",
"<  c #750203",
"1  c #760202",
"2  c #740405",
"3  c #740505",
"4  c #750606",
"5  c #770404",
"6  c #770606",
"7  c #770B0D",
"8  c #780505",
"9  c #790505",
"0  c #790D0D",
"q  c #70191E",
"w  c #7A1112",
"e  c #7B1516",
"r  c #7D1112",
"t  c #7D1213",
"y  c #781B1D",
"u  c #66252A",
"i  c #6A242A",
"p  c #69252F",
"a  c #772128",
"s  c #663B4C",
"d  c #6E434E",
"f  c #6D474C",
"g  c #774249",
"h  c #7E444B",
"j  c #7F4D54",
"k  c #7F5055",
"l  c #7E525E",
"z  c #7D6569",
"x  c #811E1E",
"c  c #862C2F",
"v  c #882626",
"b  c #832B30",
"n  c #873536",
"m  c #873C3E",
"M  c #893E3F",
"N  c #8F4B4E",
"B  c #834E50",
"V  c #844C53",
"C  c #81515B",
"Z  c #8D595B",
"A  c #924042",
"S  c #825762",
"D  c #8B797F",
"F  c #966062",
"G  c #946469",
"H  c #94676D",
"J  c #996066",
"K  c #9B6566",
"L  c #9D6061",
"P  c #986568",
"I  c #9A676A",
"U  c #A36265",
"Y  c #A3676A",
"T  c #A96C6F",
"R  c #B17E82",
"E  c #96868D",
"W  c #988188",
"Q  c #988B93",
"!  c #9D8E96",
"~  c #9B9396",
"^  c #B38385",
"/  c #B38A90",
"(  c #B18C92",
")  c #A99CA3",
"_  c #B2ABAE",
"`  c #B3ABB1",
"'  c #B9ABB1",
"]  c #BAADB2",
"[  c #B5B1B4",
"{  c #B6B1B4",
"}  c #BCB9BC",
"|  c #BDC0C3",
" . c #C7A4A9",
".. c #C1B3B6",
"X. c #C2B2B8",
"o. c #C3B5BA",
"O. c #C6B4B9",
"+. c #C2BBBF",
"@. c #C1BCBF",
"#. c #C9B4B7",
"$. c #CCB1B5",
"%. c #CEB3B5",
"&. c #D1B5B7",
"*. c #C0BEC1",
"=. c #C1BFC2",
"-. c #C6C0C3",
";. c #CBC2C5",
":. c #CAC3C6",
">. c #CEC5C8",
",. c #CACBCC",
"<. c #D0C4C8",
"1. c #D1C7C9",
"2. c #D2C7C8",
"3. c #D2CACD",
"4. c #D6CBCD",
"5. c #DCCDCE",
"6. c #D1CDD0",
"7. c #DCCED0",
"8. c #D2D2D4",
"9. c #D6D8DA",
"0. c #DED6DA",
"q. c #DCDBDD",
"w. c #DDDFE2",
"e. c #DFDDE0",
"r. c #E1D5D6",
"t. c #E2D4D6",
"y. c #E5D6D9",
"u. c #E6DDDE",
"i. c #E7DCDE",
"p. c #E4DEE2",
"a. c #E9DEE0",
"s. c #E3E1E3",
"d. c #EAE3E5",
"f. c #E8E8EB",
"g. c #ECEAEB",
"h. c #ECEBEC",
"j. c #EEEBEE",
"k. c #F4EFF1",
"l. c #F1F0F1",
"z. c #F1F2F2",
"x. c #F2F0F1",
"c. c #F2F2F3",
"v. c #F3F2F3",
"b. c #F4F5F6",
"n. c #F4F6F6",
"m. c #F5F6F6",
"M. c #F7F8F9",
"N. c #F8F7F8",
"B. c #F9F7F9",
"V. c #F9FAFA",
"C. c #F9FAFB",
"Z. c #F9FBFB",
"A. c #FAFBFB",
"S. c #FBFAFB",
"D. c #FBFBFB",
"F. c #F8FBFC",
"G. c #FAFBFC",
"H. c #F9FCFC",
"J. c #F9FDFE",
"K. c #FCFDFF",
"L. c #FCFEFE",
"P. c #FDFEFF",
"I. c #FDFFFF",
"U. c #FEFEFF",
"Y. c #FEFFFF",
"T. c gray100",
/* pixels */
"P.P.P.V.5.Y 0 5 w N #.v.P.V.v.",
"C.V.0.U x 8 < < < 4 y L 4.:.,.",
"[ *.) G K B Z H F k G I W 3.F.",
"-.=.V.C.F.| 9.C.f.O.v.F.( R S.",
"..z s.v.l.[ 3.v.p.] j.j.S c i.",
" .q D <.1.~ _ <.o.! ;._ p r &.",
"$.e f w.P.*.q.P.j.O.S.*.: r %.",
"i.n ; Q v.} 8.l.p.` v.E * v y.",
"V.^ 4 u C d g j h s l u 2 T V.",
"P.i.M > . o o < @ %   & A r.P.",
"P.P.2.M # O $ 9 = + - V 7.P.P.",
"P.P.P.r.J a 7 5 4 c / d.P.P.P."
};
