/* XPM */
static char *sport[] = {
/* columns rows colors chars-per-pixel */
"15 15 82 1",
"  c #000000",
". c #010101",
"X c #020202",
"o c #030303",
"O c #040404",
"+ c #050505",
"@ c #060606",
"# c #070707",
"$ c #080808",
"% c #090909",
"& c #0A0A0A",
"* c #0B0B0B",
"= c #0C0C0C",
"- c #0D0D0D",
"; c #0E0E0E",
": c #0F0F0F",
"> c #111111",
", c #121212",
"< c #131313",
"1 c #141414",
"2 c #151515",
"3 c #161616",
"4 c #171717",
"5 c #181818",
"6 c #191919",
"7 c #1A1A1A",
"8 c #1B1B1B",
"9 c #1D1D1D",
"0 c #1F1F1F",
"q c #202020",
"w c #212121",
"e c #222222",
"r c #232323",
"t c #242424",
"y c #252525",
"u c #262626",
"i c #272727",
"p c #282828",
"a c #292929",
"s c #2A2A2A",
"d c #2B2B2B",
"f c #2C2C2C",
"g c #2E2E2E",
"h c #2F2F2F",
"j c #313131",
"k c #333333",
"l c #343434",
"z c #383838",
"x c #3B3B3B",
"c c #3C3C3C",
"v c #3D3D3D",
"b c #404040",
"n c #414141",
"m c #424242",
"M c #444444",
"N c #474747",
"B c #484848",
"V c #494949",
"C c #4C4C4C",
"Z c #4D4D4D",
"A c #525252",
"S c #545454",
"D c #555555",
"F c #575757",
"G c #595959",
"H c #5C5C5C",
"J c #606060",
"K c #646464",
"L c #6A6A6A",
"P c #707070",
"I c #717171",
"U c #727272",
"Y c #747474",
"T c #767676",
"R c #7A7A7A",
"E c #7B7B7B",
"W c #808080",
"Q c #888888",
"! c #8F8F8F",
"~ c #959595",
"^ c #C3C3C3",
"/ c None",
/* pixels */
"// hE>5&;#Th //",
"/ 15MK&8> Z8& /",
" >Atv//5v>Qlv; ",
"t #&8 #&#t//e#e",
"U  hDh1  TV  #U",
"a#hmLm   8ak1 a",
";aZ /##    vT8&",
"1~5//&lh&>#/Dk#",
"kHt &1atVv /;D8",
"UZ5 8m//tahHG^V",
"!V  1k///;1ktEW",
"e;  #>&kk#   ;t",
" &a;t  88   a& ",
"/ ##;   k8# & /",
"// hY&> vtUh //"
};
