/* XPM */
static char *stadium[] = {
/* columns rows colors chars-per-pixel */
"15 9 117 2",
"   c #3A3833",
".  c #3C3934",
"X  c #521315",
"o  c #561A1B",
"O  c #6B312C",
"+  c #45423C",
"@  c #7D453E",
"#  c #56534B",
"$  c #625E56",
"%  c #635F56",
"&  c #704541",
"*  c #7B4840",
"=  c #6B675D",
"-  c #6C675D",
";  c #706C61",
":  c #726E64",
">  c #736F65",
",  c #747065",
"<  c #747166",
"1  c #767167",
"2  c #797468",
"3  c #797469",
"4  c #7D786C",
"5  c #7E7A6E",
"6  c #875D56",
"7  c #975844",
"8  c #9A5742",
"9  c #86665D",
"0  c #8E685C",
"q  c #8B6C62",
"w  c #807B6F",
"e  c #837F72",
"r  c #9B6D61",
"t  c #93776D",
"y  c #B76545",
"u  c #A87668",
"i  c #B17C6D",
"p  c #BC7B62",
"a  c #BC7C63",
"s  c #898477",
"d  c #8B8579",
"f  c #8D897C",
"g  c #928C7F",
"h  c #938D7F",
"j  c #968A7B",
"k  c #BF8B72",
"l  c #C0896E",
"z  c #958E80",
"x  c #979183",
"c  c #979184",
"v  c #9C9687",
"b  c #A69384",
"n  c #B09484",
"m  c #B39B89",
"M  c #A7A090",
"N  c #A7A093",
"B  c #ACA593",
"V  c #AEA797",
"C  c #B2A291",
"Z  c #B4A594",
"A  c #BEA794",
"S  c #BBB3A0",
"D  c #C6B29D",
"F  c #C9B09D",
"G  c #C2B5A2",
"H  c #C3B5A2",
"J  c #C2BAA6",
"K  c #C5BAA6",
"L  c #C6BDA9",
"P  c #C7BFAA",
"I  c #C9BEA9",
"U  c #C8BFAA",
"Y  c #C8BFAB",
"T  c #C8BFAF",
"R  c #D0BCA9",
"E  c #CAC1AC",
"W  c #CBC2AD",
"Q  c #CBC3AE",
"!  c #CCC3AD",
"~  c #CCC3AE",
"^  c #CEC1AF",
"/  c #D2C9B7",
"(  c #D3CAB8",
")  c #D3CBB9",
"_  c #D5CEBD",
"`  c #D5CFBD",
"'  c #DDD7C9",
"]  c #E0DACD",
"[  c #E0DACE",
"{  c #E1DBCF",
"}  c #E3DFD7",
"|  c #E5DFD6",
" . c #E4E0D5",
".. c #E5E0D6",
"X. c #E6E1D7",
"o. c #E3E0DA",
"O. c #E8E4DB",
"+. c #E9E7DE",
"@. c #EBE7E2",
"#. c #EBE8E0",
"$. c #ECE8E0",
"%. c #EDEAE3",
"&. c #EEEAE3",
"*. c #EFEBE5",
"=. c #F0ECE5",
"-. c #F0ECE6",
";. c #F0EDE7",
":. c #F1EEE7",
">. c #F1EEE8",
",. c #F6F4F1",
"<. c #F9F7F5",
"1. c #F9F8F6",
"2. c #FAF9F8",
"3. c #FBFAF8",
"4. c #FCFAF9",
"5. c #FCFBF9",
"6. c #FCFBFA",
/* pixels */
"_ ] | O.+.&.=.=.%.%.+.O.| [ ` ",
"] >.,.1.5.5.5.5.5.5.5.1.,.>.{ ",
") ] | } } @.>.>.:.>.%.+.| ' ) ",
"~ U V M c N T / / ^ R F A I ~ ",
"Y c $ e - e z S F k a i r H ~ ",
"J > ; 3 . - : j l y 8 @ 6 G ~ ",
"L g 4 d 1 5 f b a 7 O X q K ~ ",
"P z   : s + : n u * o & C Y ~ ",
"Y V $ 4 3 # v m 0 9 t Z Y ~ ~ "
};
